<svg width="140" height="140" viewBox="0 0 140 140" fill="none" xmlns="http://www.w3.org/2000/svg">
<rect width="140" height="140" rx="70" fill="#937058"/>
<g clip-path="url(#clip0_10_21533)">
<rect width="140" height="140" rx="70" fill="#937058"/>
<path fill-rule="evenodd" clip-rule="evenodd" d="M17.1836 59.8966L55.0055 97.7348C63.2545 105.968 76.7388 105.975 84.9947 97.7348L122.817 59.8966C123.198 59.5157 123.142 58.8884 122.7 58.5802C118.842 55.8899 114.149 54.2949 109.093 54.2949H30.9074C25.8513 54.2949 21.1577 55.8902 17.3001 58.5802C16.8582 58.8884 16.8027 59.5157 17.1836 59.8966ZM7.07626 78.1258C7.07626 74.15 8.06201 70.3936 9.79833 67.0918C10.0699 66.5753 10.7581 66.4708 11.1707 66.8834L48.5138 104.227C60.3392 116.069 79.6542 116.076 91.4867 104.227L128.83 66.8834C129.242 66.4708 129.931 66.5753 130.202 67.0918C131.938 70.3936 132.924 74.1503 132.924 78.1258V127.874C132.924 141.025 122.227 151.705 109.093 151.705H30.9074C17.7737 151.705 7.07626 141.025 7.07626 127.874V78.1258Z" fill="#FFD77F"/>
</g>
<rect x="99" y="9" width="36" height="36" rx="18" fill="#202020"/>
<path fill-rule="evenodd" clip-rule="evenodd" d="M111 19C111.552 19 112 19.4477 112 20V22.1013C113.27 20.8049 115.041 20 117 20C120.049 20 122.641 21.9493 123.601 24.6668C123.785 25.1875 123.513 25.7588 122.992 25.9428C122.471 26.1269 121.9 25.854 121.716 25.3332C121.029 23.3899 119.175 22 117 22C115.365 22 113.912 22.785 112.999 24H116C116.552 24 117 24.4477 117 25C117 25.5523 116.552 26 116 26H111C110.448 26 110 25.5523 110 25V20C110 19.4477 110.448 19 111 19ZM111.008 28.0572C111.529 27.8731 112.1 28.146 112.284 28.6668C112.971 30.6101 114.825 32 117 32C118.635 32 120.088 31.215 121.001 30L118 30C117.448 30 117 29.5523 117 29C117 28.4477 117.448 28 118 28H123C123.265 28 123.52 28.1054 123.707 28.2929C123.895 28.4804 124 28.7348 124 29V34C124 34.5523 123.552 35 123 35C122.448 35 122 34.5523 122 34V31.8987C120.73 33.1951 118.959 34 117 34C113.951 34 111.359 32.0507 110.399 29.3332C110.215 28.8125 110.487 28.2412 111.008 28.0572Z" fill="#FFE8BA"/>
<defs>
<clipPath id="clip0_10_21533">
<rect width="140" height="140" rx="70" fill="white"/>
</clipPath>
</defs>
</svg>
