<svg width="140" height="140" viewBox="0 0 140 140" fill="none" xmlns="http://www.w3.org/2000/svg">
<rect width="140" height="140" rx="70" fill="black"/>
<rect width="140" height="140" rx="70" fill="black"/>
<path d="M47.809 69C47.809 56.7442 57.7442 46.809 70 46.809C82.2558 46.809 92.191 56.7442 92.191 69V105.191H47.809V69Z" stroke="white" stroke-width="13.618" stroke-linejoin="round"/>
<rect x="25" y="72" width="90" height="68" rx="22.6966" fill="#FFD77F"/>
<rect x="64" y="97" width="12" height="22" rx="6" fill="black"/>
<rect x="99" y="9" width="36" height="36" rx="18" fill="#202020"/>
<path fill-rule="evenodd" clip-rule="evenodd" d="M111 19C111.552 19 112 19.4477 112 20V22.1013C113.27 20.8049 115.041 20 117 20C120.049 20 122.641 21.9493 123.601 24.6668C123.785 25.1875 123.513 25.7588 122.992 25.9428C122.471 26.1269 121.9 25.854 121.716 25.3332C121.029 23.3899 119.175 22 117 22C115.365 22 113.912 22.785 112.999 24H116C116.552 24 117 24.4477 117 25C117 25.5523 116.552 26 116 26H111C110.448 26 110 25.5523 110 25V20C110 19.4477 110.448 19 111 19ZM111.008 28.0572C111.529 27.8731 112.1 28.146 112.284 28.6668C112.971 30.6101 114.825 32 117 32C118.635 32 120.088 31.215 121.001 30L118 30C117.448 30 117 29.5523 117 29C117 28.4477 117.448 28 118 28H123C123.265 28 123.52 28.1054 123.707 28.2929C123.895 28.4804 124 28.7348 124 29V34C124 34.5523 123.552 35 123 35C122.448 35 122 34.5523 122 34V31.8987C120.73 33.1951 118.959 34 117 34C113.951 34 111.359 32.0507 110.399 29.3332C110.215 28.8125 110.487 28.2412 111.008 28.0572Z" fill="white"/>
</svg>
