<svg width="140" height="140" viewBox="0 0 140 140" fill="none" xmlns="http://www.w3.org/2000/svg">
<rect width="140" height="140" rx="70" fill="black"/>
<g clip-path="url(#clip0_10_119)">
<rect width="140" height="140" rx="70" fill="black"/>
<circle cx="24" cy="30" r="40" fill="#FFD77F"/>
<rect x="77" y="79" width="70" height="70" fill="#FFD77F"/>
<g clip-path="url(#clip1_10_119)">
<rect x="24" y="39" width="91" height="103" rx="12" fill="white"/>
<rect x="57" y="51" width="24" height="24" rx="12" fill="black"/>
<path fill-rule="evenodd" clip-rule="evenodd" d="M65 62.2001V60.6001C65 58.391 66.7909 56.6001 69 56.6001C71.2091 56.6001 73 58.391 73 60.6001V62.2001C73.8837 62.2001 74.6 62.9164 74.6 63.8001V67.8001C74.6 68.6838 73.8837 69.4001 73 69.4001H65C64.1163 69.4001 63.4 68.6838 63.4 67.8001V63.8001C63.4 62.9164 64.1163 62.2001 65 62.2001ZM71.4 60.6001V62.2001H66.6V60.6001C66.6 59.2746 67.6745 58.2001 69 58.2001C70.3255 58.2001 71.4 59.2746 71.4 60.6001Z" fill="#FFD77F"/>
<rect x="34" y="82" width="71" height="62" rx="4" fill="#E4E4E4"/>
<rect x="42" y="90" width="21" height="4" rx="2" fill="#202020"/>
<rect x="42" y="102" width="34" height="4" rx="2" fill="#A2A2A2"/>
<rect x="82" y="102" width="15" height="4" rx="2" fill="#202020"/>
<rect x="58" y="122" width="39" height="4" rx="2" fill="#A2A2A2"/>
<rect x="42" y="122" width="10" height="4" rx="2" fill="#202020"/>
<rect x="42" y="112" width="50" height="4" rx="2" fill="#A2A2A2"/>
</g>
</g>
<rect x="99" y="7" width="36" height="36" rx="18" fill="#202020"/>
<path d="M126.447 25.8944C126.786 25.725 127 25.3788 127 25C127 24.6212 126.786 24.275 126.447 24.1056L112.447 17.1056C112.093 16.9282 111.667 16.9772 111.361 17.2305C111.056 17.4838 110.93 17.8934 111.038 18.2747L112.467 23.2747C112.59 23.704 112.982 24 113.429 24L118 24C118.552 24 119 24.4477 119 25C119 25.5523 118.552 26 118 26L113.429 26C112.982 26 112.59 26.296 112.467 26.7253L111.038 31.7253C110.93 32.1066 111.056 32.5163 111.361 32.7695C111.667 33.0228 112.093 33.0718 112.447 32.8944L126.447 25.8944Z" fill="white"/>
<defs>
<clipPath id="clip0_10_119">
<rect width="140" height="140" rx="70" fill="white"/>
</clipPath>
<clipPath id="clip1_10_119">
<rect x="24" y="39" width="91" height="103" rx="12" fill="white"/>
</clipPath>
</defs>
</svg>
