<svg width="184" height="184" viewBox="0 0 184 184" fill="none" xmlns="http://www.w3.org/2000/svg">
<path d="M173.853 154.604H9.93962C6.12443 154.604 3.03027 151.51 3.03027 147.695V36.099C3.03027 32.2839 6.12443 29.1897 9.93962 29.1897H173.855C177.671 29.1897 180.765 32.2839 180.765 36.099V147.695C180.763 151.51 177.669 154.604 173.853 154.604Z" fill="#EAF2FF"/>
<path d="M180.763 53.9854V36.099C180.763 32.2839 177.671 29.1897 173.853 29.1897H9.93962C6.12242 29.1897 3.03027 32.2839 3.03027 36.099V53.9854H180.763Z" fill="#9BC4F9"/>
<path d="M173.854 156.624H9.93978C5.01578 156.624 1.01074 152.617 1.01074 147.695V36.099C1.01074 31.175 5.01578 27.1699 9.93978 27.1699H173.854C178.778 27.1699 182.783 31.175 182.783 36.099V147.695C182.783 152.617 178.778 156.624 173.854 156.624ZM9.93978 31.2093C7.2435 31.2093 5.05012 33.4027 5.05012 36.099V147.695C5.05012 150.391 7.2435 152.584 9.93978 152.584H173.854C176.55 152.584 178.743 150.391 178.743 147.695V36.099C178.743 33.4027 176.55 31.2093 173.854 31.2093H9.93978Z" fill="black"/>
<path d="M182.783 56.005H1.01074V36.099C1.01074 31.175 5.01578 27.1699 9.93978 27.1699H173.854C178.778 27.1699 182.783 31.175 182.783 36.099V56.005ZM5.05012 51.9656H178.743V36.099C178.743 33.4027 176.55 31.2093 173.854 31.2093H9.93978C7.2435 31.2093 5.05012 33.4027 5.05012 36.099V51.9656Z" fill="black"/>
<path d="M88.4752 43.6082H14.5304C13.4156 43.6082 12.5107 42.7034 12.5107 41.5885C12.5107 40.4737 13.4156 39.5688 14.5304 39.5688H88.4752C89.5901 39.5688 90.4949 40.4737 90.4949 41.5885C90.4949 42.7034 89.5901 43.6082 88.4752 43.6082Z" fill="black"/>
<path d="M169.265 43.6082H159.948C158.832 43.6082 157.929 42.7034 157.929 41.5885C157.929 40.4737 158.832 39.5688 159.948 39.5688H169.265C170.382 39.5688 171.285 40.4737 171.285 41.5885C171.285 42.7034 170.38 43.6082 169.265 43.6082Z" fill="black"/>
<path d="M91.9047 140.567C112.154 140.567 128.57 124.152 128.57 103.902C128.57 83.6522 112.154 67.2366 91.9047 67.2366C71.6549 67.2366 55.2393 83.6522 55.2393 103.902C55.2393 124.152 71.6549 140.567 91.9047 140.567Z" fill="#FEFEFE"/>
<path d="M91.899 142.585C70.567 142.585 53.2139 125.23 53.2139 103.9C53.2139 82.57 70.567 65.2168 91.899 65.2168C113.231 65.2168 130.582 82.57 130.582 103.9C130.582 125.23 113.231 142.585 91.899 142.585ZM91.899 69.2542C72.7968 69.2542 57.2532 84.7956 57.2532 103.898C57.2532 123.002 72.7947 138.544 91.899 138.544C111.001 138.544 126.543 123.002 126.543 103.898C126.543 84.7956 111.001 69.2542 91.899 69.2542Z" fill="black"/>
<path d="M91.8986 142.585C90.7837 142.585 89.8789 141.682 89.8789 140.565V67.2345C89.8789 66.1197 90.7837 65.2148 91.8986 65.2148C93.0135 65.2148 93.9183 66.1197 93.9183 67.2345V140.565C93.9183 141.68 93.0135 142.585 91.8986 142.585Z" fill="black"/>
<path d="M91.8991 142.585C80.1082 142.585 70.8701 125.593 70.8701 103.9C70.8701 82.2084 80.1061 65.2168 91.8991 65.2168C103.69 65.2168 112.926 82.2084 112.926 103.9C112.926 125.593 103.69 142.585 91.8991 142.585ZM91.8991 69.2542C82.6893 69.2542 74.9095 85.1188 74.9095 103.898C74.9095 122.679 82.6893 138.544 91.8991 138.544C101.109 138.544 108.887 122.679 108.887 103.898C108.887 85.1208 101.109 69.2542 91.8991 69.2542Z" fill="black"/>
<path d="M125.886 119.67H57.9035C56.7886 119.67 55.8838 118.767 55.8838 117.65C55.8838 116.533 56.7886 115.63 57.9035 115.63H125.886C127.003 115.63 127.906 116.533 127.906 117.65C127.906 118.767 127.003 119.67 125.886 119.67Z" fill="black"/>
<path d="M125.892 92.1675H57.9074C56.7925 92.1675 55.8877 91.2627 55.8877 90.1479C55.8877 89.033 56.7925 88.1282 57.9074 88.1282H125.892C127.009 88.1282 127.912 89.033 127.912 90.1479C127.912 91.2627 127.009 92.1675 125.892 92.1675Z" fill="black"/>
</svg>
